<svg width="100" height="100" viewBox="0 0 100 100" fill="none" xmlns="http://www.w3.org/2000/svg">
<path d="M23.5957 35.7346H42.4566V37.2338H25.3246V48.5164H41.4352V50.0154H25.3246V62.4027H42.6531V63.9018H23.5957V35.7346ZM44.1465 35.7346H46.1504L55.0307 48.1219L64.1074 35.7344L76.4533 20L56.1701 49.4238L66.6223 63.9018H64.5396L55.0307 50.7256L45.4822 63.9018H43.4391L53.9697 49.4236L44.1463 35.7346H44.1465ZM67.3688 37.2338V35.7344H88.8625V37.2336H78.9604V63.9016H77.2314V37.2338H67.3688V37.2338ZM0 35.7344H2.16113L31.9619 80.3287L19.6469 63.9016L1.80742 37.8648L1.72891 63.902H0V35.7344ZM88.6883 61.95C88.335 61.95 88.0701 61.6766 88.0701 61.3227C88.0701 60.9691 88.335 60.6953 88.6883 60.6953C89.0457 60.6953 89.3064 60.9689 89.3064 61.3227C89.3064 61.6764 89.0457 61.95 88.6883 61.95ZM90.3871 60.2996H91.3123C91.3248 60.8006 91.6906 61.1375 92.2289 61.1375C92.8303 61.1375 93.1709 60.7754 93.1709 60.0975V55.8025H94.1129V60.1016C94.1129 61.3227 93.4064 62.026 92.2373 62.026C91.1396 62.026 90.3871 61.3438 90.3871 60.2994V60.2996ZM95.3449 60.2449H96.2785C96.3584 60.8217 96.9219 61.1879 97.7336 61.1879C98.4904 61.1879 99.0455 60.7963 99.0455 60.2574C99.0455 59.7943 98.6922 59.5164 97.8891 59.327L97.1068 59.1375C96.0092 58.8805 95.509 58.35 95.509 57.4574C95.509 56.3754 96.392 55.6553 97.7166 55.6553C98.9486 55.6553 99.8486 56.3752 99.9033 57.3984H98.9865C98.8982 56.8385 98.4103 56.4889 97.7039 56.4889C96.9598 56.4889 96.4637 56.8469 96.4637 57.3941C96.4637 57.8277 96.783 58.0764 97.5736 58.2615L98.2422 58.4258C99.4869 58.7164 100 59.2217 100 60.1354C100 61.2975 99.1002 62.026 97.6621 62.026C96.3164 62.026 95.4121 61.3311 95.3449 60.2447V60.2449Z" fill="currentColor"/>
</svg>
