<svg width="100" height="100" viewBox="0 0 100 100" fill="none" xmlns="http://www.w3.org/2000/svg">
<path d="M49.8867 44.6594C45.9818 44.6594 43.1664 47.2061 43.1664 51.026C43.1664 54.8461 46.3355 57.3928 50.2406 57.3928C52.5998 57.3928 54.6795 56.459 55.9672 54.885L53.2611 53.3217C52.5467 54.1033 51.4607 54.5596 50.2404 54.5596C48.5463 54.5596 47.1066 53.6754 46.5725 52.2605H56.4834C56.5613 51.8643 56.6072 51.4539 56.6072 51.0225C56.6072 47.2061 53.7918 44.6592 49.8867 44.6592V44.6594ZM46.541 49.7881C46.983 48.3768 48.1928 47.4889 49.8834 47.4889C51.5777 47.4889 52.7875 48.3768 53.226 49.7881H46.541ZM87.9742 44.6592C84.0693 44.6592 81.2537 47.2061 81.2537 51.026C81.2537 54.8461 84.4229 57.3928 88.3279 57.3928C90.6871 57.3928 92.7668 56.459 94.0545 54.885L91.3484 53.3217C90.634 54.1033 89.5482 54.5596 88.3279 54.5596C86.6336 54.5596 85.1939 53.6754 84.66 52.2605H94.5703C94.6482 51.8643 94.6941 51.4539 94.6941 51.0225C94.6941 47.2061 91.8787 44.6592 87.9738 44.6592H87.9742ZM84.6316 49.7881C85.0738 48.3768 86.2834 47.4889 87.9742 47.4889C89.6684 47.4889 90.8781 48.3768 91.3166 49.7881H84.6316ZM70.8264 51.026C70.8264 53.1482 72.2131 54.5631 74.3635 54.5631C75.8207 54.5631 76.9137 53.9018 77.4762 52.8229L80.1926 54.3898C79.0678 56.2645 76.9598 57.3928 74.3635 57.3928C70.4551 57.3928 67.6432 54.8459 67.6432 51.026C67.6432 47.2061 70.4586 44.6594 74.3635 44.6594C76.9598 44.6594 79.0643 45.7877 80.1926 47.6623L77.4762 49.2293C76.9137 48.1504 75.8207 47.4891 74.3635 47.4891C72.2166 47.4891 70.8264 48.9037 70.8264 51.0262V51.026ZM100 40.7686V57.0391H96.8166V40.7686H100ZM13.0695 39L26.1389 61.6373H0L13.0695 39ZM45.7449 40.7686L35.9437 57.7465L26.1424 40.7686H29.8176L35.9437 51.3799L42.0699 40.7686H45.7449V40.7686ZM66.5818 45.0131V48.4404C66.2281 48.3379 65.8533 48.2672 65.45 48.2672C63.3949 48.2672 61.9129 49.682 61.9129 51.8043V57.0391H58.7295V45.0131H61.9129V48.267C61.9129 46.4701 64.0033 45.0131 66.5818 45.0131V45.0131Z" fill="white"/>
</svg>
